<!-- Generator: Adobe Illustrator 19.0.0, SVG Export Plug-In . SVG Version: 6.00 Build 0)  -->
<svg version="1.1" id="레이어_1" xmlns="http://www.w3.org/2000/svg" xmlns:xlink="http://www.w3.org/1999/xlink" x="0px"
	 y="0px" viewBox="0 0 126 34.2" style="enable-background:new 0 0 126 34.2;" width="189" height="50" xml:space="preserve">
<style type="text/css">
    .st0{fill:none;stroke:#000000;stroke-width:0.2;stroke-miterlimit:5;}
	.st1{fill:#E60012;stroke:#E60012;stroke-width:0.2;stroke-miterlimit:5;}
</style>
<g id="XMLID_1_">
	<path id="XMLID_37_" d="M36.7,23.2h-2.6l-1.3-4.8c-0.1-0.4-0.2-0.8-0.3-1.2c-0.1-0.4-0.2-0.8-0.4-1.1C32.1,15.6,32,15.3,32,15
		c-0.1-0.3-0.1-0.6-0.1-0.7c0,0.2-0.1,0.5-0.1,0.8c-0.1,0.4-0.1,0.6-0.1,1c-0.1,0.3-0.1,0.6-0.1,0.9s-0.1,0.6-0.1,0.9l-0.9,5.4h-2.5
		l2.4-12.6H33l1.5,5.1c0.2,0.6,0.4,1.3,0.5,1.9c0.1,0.6,0.2,1.2,0.3,1.6c0-0.2,0.1-0.5,0.1-0.9c0.1-0.3,0.1-0.6,0.1-0.9
		c0-0.4,0.1-0.6,0.1-0.9c0.1-0.3,0.1-0.6,0.1-0.8l0.9-5.1h2.4L36.7,23.2z"/>
	<polygon id="XMLID_36_" points="48.1,12.7 43.8,12.7 43.3,15.6 46.9,15.6 46.5,17.7 42.9,17.7 42.3,21 47.1,21 46.7,23.2 
		39.2,23.2 41.6,10.6 48.9,10.6 	"/>
	<polygon id="XMLID_35_" points="58.9,12.8 55.8,12.8 53.9,23.2 51.3,23.2 53.2,12.8 50.1,12.8 50.5,10.6 59.7,10.6 	"/>
	<path id="XMLID_34_" d="M67.5,13.3c-0.4-0.4-0.9-0.6-1.3-0.7c-0.5-0.1-1-0.2-1.6-0.2c-0.3,0-0.6,0.1-0.8,0.1
		c-0.3,0.1-0.5,0.2-0.6,0.4c-0.2,0.1-0.4,0.3-0.5,0.5c-0.1,0.2-0.1,0.4-0.1,0.6s0.1,0.4,0.3,0.6c0.2,0.2,0.5,0.4,0.9,0.6l1.5,0.5
		c0.9,0.4,1.4,0.7,1.9,1.2c0.4,0.4,0.6,1.1,0.6,1.8c0.1,0.7-0.1,1.3-0.4,1.9c-0.3,0.6-0.6,1.1-1.1,1.5c-0.6,0.4-1.2,0.8-1.9,1
		c-0.8,0.2-1.6,0.4-2.6,0.4s-1.7-0.1-2.4-0.3c-0.6-0.2-1.3-0.5-1.9-0.9l1.4-1.9c0.5,0.3,1.1,0.6,1.6,0.7s1.1,0.3,1.7,0.3
		c0.9,0,1.5-0.2,1.9-0.6c0.5-0.4,0.7-0.9,0.7-1.5c0-0.4-0.1-0.6-0.4-0.9c-0.2-0.1-0.6-0.4-1.1-0.5l-1.4-0.5
		c-0.7-0.3-1.3-0.6-1.7-1.1s-0.6-1-0.7-1.7c0-0.6,0.1-1.2,0.4-1.8c0.2-0.6,0.6-1,1.1-1.4c0.5-0.4,1.1-0.6,1.7-0.9
		c0.6-0.2,1.4-0.3,2.1-0.3s1.5,0.1,2.2,0.3c0.7,0.3,1.4,0.6,1.8,1L67.5,13.3z"/>
	<path d="M75.7,15.5c0-0.2-0.1-0.5-0.1-0.8c0-0.2,0-0.5,0-0.6v-0.5l-0.1-0.2c-0.1,0.4-0.2,0.6-0.4,0.9c-0.1,0.2-0.2,0.5-0.4,0.8
		c0,0.1-0.1,0.2-0.1,0.4v-4.7l0.1-0.1h2.8l1.6,12.6h-2.6l-0.4-3h-1.5v-2.1h1.3L75.7,15.5z M74.7,15.4c-0.1,0.1-0.1,0.3-0.1,0.4
		l-1.1,2.4h1.2v2.1h-2.3l-1.4,3h-2.8l6.5-12.5V15.4z"/>
	<path d="M88.2,13.9c0-0.4-0.1-0.8-0.4-0.9c-0.3-0.2-0.7-0.4-1.2-0.4h-0.1v-2h1.4c0.9,0,1.7,0.3,2.2,0.7c0.6,0.5,0.9,1.2,0.9,2.1
		c0.1,0.6-0.1,1.1-0.2,1.6c-0.2,0.5-0.4,0.9-0.8,1.4c-0.4,0.4-0.7,0.6-1.1,0.9c-0.4,0.2-0.9,0.4-1.4,0.4c0.1,0.1,0.2,0.2,0.3,0.3
		c0.1,0.1,0.2,0.3,0.3,0.4c0.1,0.2,0.3,0.5,0.4,0.9c0.2,0.4,0.4,0.8,0.6,1.2c0.1,0.4,0.4,0.9,0.5,1.3c0.1,0.4,0.3,0.7,0.4,1
		c0.1,0.2,0.1,0.4,0.1,0.4h-3l-0.6-1.6V16c0.1,0,0.2,0,0.3,0c0.3-0.1,0.5-0.2,0.7-0.4c0.2-0.2,0.4-0.4,0.6-0.8S88.2,14.2,88.2,13.9z
		 M86.4,12.6h-1.1L84.6,16h0.8c0.4,0,0.7,0,1-0.1v5.6l-0.1-0.4c-0.2-0.6-0.4-1.1-0.6-1.5c-0.1-0.4-0.3-0.6-0.4-0.9
		c-0.1-0.3-0.2-0.4-0.4-0.6c-0.1-0.1-0.2-0.2-0.4-0.2C84.4,18,84.4,18,84.2,18l-1,5.2h-2.6L83,10.6h3.4V12.6z"/>
	<path d="M98.6,15.5c-0.1-0.2-0.1-0.5-0.1-0.8c0-0.2,0-0.5,0-0.6l-0.1-0.5v-0.2c-0.1,0.4-0.2,0.6-0.4,0.9c-0.1,0.2-0.2,0.5-0.4,0.8
		c-0.1,0.1-0.1,0.2-0.1,0.4v-4.7l0.1-0.1h2.7l1.7,12.6h-2.7l-0.3-3h-1.5v-2.1h1.3L98.6,15.5z M97.6,15.4c-0.1,0.1-0.1,0.3-0.1,0.4
		l-1.1,2.4h1.2v2.1h-2.3l-1.4,3h-2.8l6.5-12.5V15.4z"/>
	<path id="XMLID_27_" d="M112.5,23.2h-2.6l-1.3-4.8c-0.1-0.4-0.2-0.8-0.4-1.2c-0.1-0.4-0.2-0.8-0.3-1.1c-0.1-0.4-0.1-0.7-0.2-1.1
		c-0.1-0.3-0.1-0.6-0.1-0.7c0,0.2-0.1,0.5-0.1,0.8c0,0.4-0.1,0.6-0.1,1c-0.1,0.3-0.1,0.6-0.2,0.9c0,0.3-0.1,0.6-0.1,0.9l-0.9,5.4
		h-2.4l2.4-12.6h2.8l1.5,5.1c0.2,0.6,0.4,1.3,0.5,1.9s0.2,1.2,0.3,1.6c0-0.2,0-0.5,0.1-0.9c0-0.3,0.1-0.6,0.1-0.9
		c0.1-0.4,0.1-0.6,0.1-0.9c0.1-0.3,0.1-0.6,0.1-0.8l0.9-5.1h2.4L112.5,23.2z"/>
	<path id="XMLID_26_" d="M124.4,13.4c-0.4-0.4-0.7-0.6-1.1-0.7s-0.9-0.2-1.4-0.2c-0.4,0-0.8,0.1-1.1,0.1c-0.4,0.1-0.6,0.3-0.9,0.5
		c-0.4,0.3-0.6,0.7-0.9,1.2s-0.5,1.1-0.6,1.6c-0.1,0.6-0.3,1.1-0.4,1.7s-0.1,1.1-0.1,1.4c0,0.9,0.2,1.4,0.6,1.8s1,0.6,1.7,0.6
		c0.6,0,1.1-0.1,1.5-0.4l0.6-2.9h-1.9l-0.1-2.1h5l-1.1,6.2c-0.7,0.4-1.4,0.6-2.1,0.8c-0.8,0.1-1.5,0.2-2.3,0.2c-0.7,0-1.4-0.1-2-0.3
		s-1-0.5-1.4-0.9c-0.4-0.4-0.7-0.9-0.9-1.4c-0.2-0.5-0.3-1.1-0.4-1.8c0-0.7,0.1-1.4,0.2-2.1c0.1-0.7,0.3-1.4,0.6-1.9
		c0.2-0.6,0.6-1.1,0.9-1.7c0.3-0.5,0.7-0.9,1.1-1.2c0.4-0.3,0.7-0.6,1.1-0.8s0.7-0.4,1.1-0.5s0.7-0.2,1.1-0.3c0.4,0,0.8-0.1,1.2-0.1
		c1.5,0,2.8,0.5,3.8,1.5L124.4,13.4z"/>
	<path id="XMLID_25_" class="st0" d="M36.7,23.2h-2.6l-1.3-4.8c-0.1-0.4-0.2-0.8-0.3-1.2c-0.1-0.4-0.2-0.8-0.4-1.1
		C32.1,15.6,32,15.3,32,15c-0.1-0.3-0.1-0.6-0.1-0.7c0,0.2-0.1,0.5-0.1,0.8c-0.1,0.4-0.1,0.6-0.1,1c-0.1,0.3-0.1,0.6-0.1,0.9
		s-0.1,0.6-0.1,0.9l-0.9,5.4h-2.5l2.4-12.6H33l1.5,5.1c0.2,0.6,0.4,1.3,0.5,1.9c0.1,0.6,0.2,1.2,0.3,1.6c0-0.2,0.1-0.5,0.1-0.9
		c0.1-0.3,0.1-0.6,0.1-0.9c0-0.4,0.1-0.6,0.1-0.9c0.1-0.3,0.1-0.6,0.1-0.8l0.9-5.1h2.4L36.7,23.2z"/>
	<polygon id="XMLID_24_" class="st0" points="48.1,12.7 43.8,12.7 43.3,15.6 46.9,15.6 46.5,17.7 42.9,17.7 42.3,21 47.1,21 
		46.7,23.2 39.2,23.2 41.6,10.6 48.9,10.6 	"/>
	<polygon id="XMLID_23_" class="st0" points="58.9,12.8 55.8,12.8 53.9,23.2 51.3,23.2 53.2,12.8 50.1,12.8 50.5,10.6 59.7,10.6 	
		"/>
	<path id="XMLID_22_" class="st0" d="M67.5,13.3c-0.4-0.4-0.9-0.6-1.3-0.7c-0.5-0.1-1-0.2-1.6-0.2c-0.3,0-0.6,0.1-0.8,0.1
		c-0.3,0.1-0.5,0.2-0.6,0.4c-0.2,0.1-0.4,0.3-0.5,0.5c-0.1,0.2-0.1,0.4-0.1,0.6s0.1,0.4,0.3,0.6c0.2,0.2,0.5,0.4,0.9,0.6l1.5,0.5
		c0.9,0.4,1.4,0.7,1.9,1.2c0.4,0.4,0.6,1.1,0.6,1.8c0.1,0.7-0.1,1.3-0.4,1.9c-0.3,0.6-0.6,1.1-1.1,1.5c-0.6,0.4-1.2,0.8-1.9,1
		c-0.8,0.2-1.6,0.4-2.6,0.4s-1.7-0.1-2.4-0.3c-0.6-0.2-1.3-0.5-1.9-0.9l1.4-1.9c0.5,0.3,1.1,0.6,1.6,0.7s1.1,0.3,1.7,0.3
		c0.9,0,1.5-0.2,1.9-0.6c0.5-0.4,0.7-0.9,0.7-1.5c0-0.4-0.1-0.6-0.4-0.9c-0.2-0.1-0.6-0.4-1.1-0.5l-1.4-0.5
		c-0.7-0.3-1.3-0.6-1.7-1.1s-0.6-1-0.7-1.7c0-0.6,0.1-1.2,0.4-1.8c0.2-0.6,0.6-1,1.1-1.4c0.5-0.4,1.1-0.6,1.7-0.9
		c0.6-0.2,1.4-0.3,2.1-0.3s1.5,0.1,2.2,0.3c0.7,0.3,1.4,0.6,1.8,1L67.5,13.3z"/>
	<path class="st0" d="M75.7,15.5c0-0.2-0.1-0.5-0.1-0.8c0-0.2,0-0.5,0-0.6v-0.5l-0.1-0.2c-0.1,0.4-0.2,0.6-0.4,0.9
		c-0.1,0.2-0.2,0.5-0.4,0.8c-0.1,0.3-0.2,0.5-0.3,0.7l-1.1,2.4h2.5L75.7,15.5L75.7,15.5z M76.5,23.2l-0.4-3h-3.8l-1.4,3h-2.8
		l6.6-12.6h2.8l1.6,12.6H76.5z"/>
	<path class="st0" d="M88.2,13.9c0-0.4-0.1-0.8-0.4-0.9c-0.3-0.2-0.7-0.4-1.2-0.4h-1.3L84.6,16h0.8c0.6,0,1,0,1.3-0.1
		s0.5-0.2,0.7-0.4c0.2-0.2,0.4-0.4,0.6-0.8S88.2,14.2,88.2,13.9L88.2,13.9z M90.9,13.4c0.1,0.6-0.1,1.1-0.2,1.6
		c-0.2,0.5-0.4,0.9-0.8,1.4c-0.4,0.4-0.7,0.6-1.1,0.9c-0.4,0.2-0.9,0.4-1.4,0.4c0.1,0.1,0.2,0.2,0.3,0.3c0.1,0.1,0.2,0.3,0.3,0.4
		c0.1,0.2,0.3,0.5,0.4,0.9c0.2,0.4,0.4,0.8,0.6,1.2c0.1,0.4,0.4,0.9,0.5,1.3c0.1,0.4,0.3,0.7,0.4,1c0.1,0.2,0.1,0.4,0.1,0.4h-3
		l-0.7-2c-0.2-0.6-0.4-1.1-0.6-1.5c-0.1-0.4-0.3-0.6-0.4-0.9c-0.1-0.3-0.2-0.4-0.4-0.6c-0.1-0.1-0.2-0.2-0.4-0.2
		C84.4,18,84.4,18,84.2,18l-1,5.2h-2.6L83,10.6h4.8c0.9,0,1.7,0.3,2.2,0.7C90.6,11.8,90.9,12.5,90.9,13.4z"/>
	<path class="st0" d="M98.6,15.5c-0.1-0.2-0.1-0.5-0.1-0.8c0-0.2,0-0.5,0-0.6l-0.1-0.5v-0.2c-0.1,0.4-0.2,0.6-0.4,0.9
		c-0.1,0.2-0.2,0.5-0.4,0.8c-0.1,0.3-0.2,0.5-0.3,0.7l-1.1,2.4h2.5L98.6,15.5L98.6,15.5z M99.4,23.2l-0.3-3h-3.8l-1.4,3h-2.8
		l6.6-12.6h2.7l1.7,12.6H99.4z"/>
	<path id="XMLID_15_" class="st0" d="M112.5,23.2h-2.6l-1.3-4.8c-0.1-0.4-0.2-0.8-0.4-1.2c-0.1-0.4-0.2-0.8-0.3-1.1
		c-0.1-0.4-0.1-0.7-0.2-1.1c-0.1-0.3-0.1-0.6-0.1-0.7c0,0.2-0.1,0.5-0.1,0.8c0,0.4-0.1,0.6-0.1,1c-0.1,0.3-0.1,0.6-0.2,0.9
		c0,0.3-0.1,0.6-0.1,0.9l-0.9,5.4h-2.4l2.4-12.6h2.8l1.5,5.1c0.2,0.6,0.4,1.3,0.5,1.9s0.2,1.2,0.3,1.6c0-0.2,0-0.5,0.1-0.9
		c0-0.3,0.1-0.6,0.1-0.9c0.1-0.4,0.1-0.6,0.1-0.9c0.1-0.3,0.1-0.6,0.1-0.8l0.9-5.1h2.4L112.5,23.2z"/>
	<path id="XMLID_14_" class="st0" d="M124.4,13.4c-0.4-0.4-0.7-0.6-1.1-0.7s-0.9-0.2-1.4-0.2c-0.4,0-0.8,0.1-1.1,0.1
		c-0.4,0.1-0.6,0.3-0.9,0.5c-0.4,0.3-0.6,0.7-0.9,1.2s-0.5,1.1-0.6,1.6c-0.1,0.6-0.3,1.1-0.4,1.7s-0.1,1.1-0.1,1.4
		c0,0.9,0.2,1.4,0.6,1.8s1,0.6,1.7,0.6c0.6,0,1.1-0.1,1.5-0.4l0.6-2.9h-1.9l-0.1-2.1h5l-1.1,6.2c-0.7,0.4-1.4,0.6-2.1,0.8
		c-0.8,0.1-1.5,0.2-2.3,0.2c-0.7,0-1.4-0.1-2-0.3s-1-0.5-1.4-0.9c-0.4-0.4-0.7-0.9-0.9-1.4c-0.2-0.5-0.3-1.1-0.4-1.8
		c0-0.7,0.1-1.4,0.2-2.1c0.1-0.7,0.3-1.4,0.6-1.9c0.2-0.6,0.6-1.1,0.9-1.7c0.3-0.5,0.7-0.9,1.1-1.2c0.4-0.3,0.7-0.6,1.1-0.8
		s0.7-0.4,1.1-0.5s0.7-0.2,1.1-0.3c0.4,0,0.8-0.1,1.2-0.1c1.5,0,2.8,0.5,3.8,1.5L124.4,13.4z"/>
	<path id="XMLID_13_" d="M30.2,27.3h-1.4v3.2h1.4v-1.1l0.5,0.3v0.6c0,0.5-0.1,0.8-0.1,0.9c-0.1,0.2-0.2,0.3-0.4,0.3h-1.3
		c-0.2,0-0.4-0.1-0.4-0.3c-0.1-0.1-0.1-0.4-0.1-0.9v-2.7c0-0.4,0.1-0.8,0.1-0.9c0.1-0.2,0.2-0.3,0.4-0.3h1.3c0.2,0,0.4,0.1,0.4,0.3
		c0.1,0.1,0.1,0.5,0.1,0.9v0.5l-0.5,0.2V27.3z"/>
	<path d="M43,26.3h0.9c0.2,0,0.4,0.1,0.4,0.3c0.1,0.1,0.1,0.5,0.1,0.9v2.7c0,0.5,0,0.8-0.1,0.9c-0.1,0.2-0.2,0.3-0.4,0.3H43v-1h0.9
		v-3.2H43V26.3z M41.8,27.6c0-0.4,0-0.8,0.1-0.9c0.1-0.2,0.2-0.3,0.4-0.3H43v0.9h-0.8v3.2H43v1h-0.8c-0.2,0-0.4-0.1-0.4-0.3
		c-0.1-0.1-0.1-0.4-0.1-0.9V27.6z"/>
	<path id="XMLID_10_" d="M55.6,31.5v-5.1h0.4l1.1,3.1l1-3.1h0.4v5.1h-0.5v-3.1c0-0.1,0-0.1,0-0.3c0-0.1,0-0.1,0-0.3
		c0,0.1,0,0.2-0.1,0.4c0,0.1,0,0.1,0,0.2L57,30.8h-0.1l-0.9-2.6c0-0.1-0.1-0.1-0.1-0.2c0-0.1,0-0.2-0.1-0.3c0,0.1,0,0.2,0,0.3
		s0,0.2,0,0.3v3.1H55.6z"/>
	<path d="M71.1,27.3h-0.4v-0.9h0.6c0.2,0,0.4,0.1,0.4,0.3c0.1,0.1,0.1,0.4,0.1,0.7v1.1c0,0.4,0,0.6-0.1,0.8s-0.2,0.2-0.4,0.2h-0.6
		v-0.9h0.4c0.1,0,0.1-0.1,0.2-0.1c0,0,0.1-0.1,0.1-0.3v-0.6c0-0.1-0.1-0.2-0.1-0.3C71.3,27.3,71.3,27.3,71.1,27.3z M70.7,27.3H70
		v1.4h0.7v0.9H70v2h-0.5v-5.1h1.2V27.3z"/>
	<path id="XMLID_7_" d="M83.2,26.3v4.1h1.4v-4.1h0.5v3.9c0,0.5,0,0.8-0.1,0.9c-0.1,0.2-0.2,0.3-0.4,0.3h-1.4c-0.1,0-0.3-0.1-0.4-0.3
		c-0.1-0.1-0.1-0.4-0.1-0.9v-3.9H83.2z"/>
	<polygon id="XMLID_6_" points="97.3,27.3 97.3,31.5 96.8,31.5 96.8,27.3 95.8,27.3 95.8,26.3 98.3,26.3 98.3,27.3 	"/>
	<polygon id="XMLID_5_" points="109,31.5 109,26.3 111.3,26.3 111.3,27.2 109.5,27.2 109.5,28.3 110.6,28.3 110.6,29.3 109.5,29.3 
		109.5,30.5 111.3,30.5 111.3,31.5 	"/>
	<path d="M123.9,27.3h-0.5v-0.9h0.7c0.1,0,0.3,0.1,0.4,0.3c0.1,0.1,0.1,0.4,0.1,0.7v1.2c0,0.4-0.1,0.6-0.1,0.8
		c-0.1,0.1-0.2,0.2-0.4,0.2h-0.3l1,1.9h-0.7l-0.7-1.5v-1.3h0.5c0.1,0,0.1-0.1,0.1-0.1c0.1,0,0.1-0.1,0.1-0.3v-0.6
		c0-0.1,0-0.2-0.1-0.3C124.1,27.3,124,27.3,123.9,27.3z M123.4,27.3h-0.6v1.4h0.6V30l-0.2-0.4h-0.4v1.9h-0.5v-5.1h1.1V27.3z"/>
	<path id="XMLID_2_" class="st1" d="M14.6,14.3c3,4.9,4.6,10.7,7.4,6.2c2-3.2,0.9-10-2.4-15.2c-2.4-3.5-5.8-5.4-8-5.3
		c2.9-0.3,6.9,2.3,9.4,6.9c3.6,6.6,4.3,15.2,1.4,19.1c-4.6,6.1-10.4-2-12.8-6c-3.1-5-4.6-10.7-7.4-6.2c-2.1,3.1-1,10,2.4,15.2
		c2.3,3.4,5.7,5.4,7.9,5.2c-2.8,0.4-6.9-2.2-9.4-6.9c-3.6-6.7-4.3-15.2-1.4-19.2C6.4,2.2,12.1,10.2,14.6,14.3z"/>
</g>
</svg>
